<svg xmlns="http://www.w3.org/2000/svg" viewBox="0 0 745.77 864.25">
  <title>Super Earth Black</title>
  <g id="Layer_2" data-name="Layer 2">
    <g id="Super_Earth" data-name="Super Earth">
      <g id="Towers">
        <path id="tower_small_left" data-name="tower small left" d="M297.91,135.49l8.85-71.4,18.72-8.18v74A202.67,202.67,0,0,0,297.91,135.49Z"/>
        <path id="tower_tall_left" data-name="tower tall left" d="M366.61,126.05V0L344.19,9.14l-6.28,51.05,7.24,4,.19,63.05S361.08,125.09,366.61,126.05Z"/>
        <path id="tower_tall_left-2" data-name="tower tall left" d="M380.07,126.05V0l22.41,9.14,6.29,51.05-7.24,4-.19,63.05S385.59,125.09,380.07,126.05Z"/>
        <path id="tower_small_right" data-name="tower small right" d="M448.12,134.59l-8.85-71.4L420.55,55v74A202.67,202.67,0,0,1,448.12,134.59Z"/>
      </g>
      <g id="Lines_underneath" data-name="Lines underneath">
        <path id="short_line" data-name="short line" d="M496.68,816.7s25.86,14.41,48.47,47.55c0,0,10.29-4.65,11.43-5.56,0-7-38.7-49.4-41.93-48.27Z"/>
        <path id="medium_left" data-name="medium left" d="M311.88,756.83c-137.31-24.13-289-161.78-257.4-370.4-8.21,3.12-8.72,3.14-12.76,5C13.15,577.79,125.66,720.19,272.38,769.16,278.77,767,301.32,759.55,311.88,756.83Z"/>
        <path id="Long_left" data-name="Long left" d="M252.57,779.05C128,731,18.19,625,12.19,438.22,4,441.34,4.05,440.59,0,442.48-.73,631.22,123.23,747.57,230.48,793.14,236.77,789.76,240.36,786.56,252.57,779.05Z"/>
        <path id="medium_right" data-name="medium right" d="M733.91,436.44l11.39,5.76C758.31,687,500.46,873,288,812.19c0,0,11.65-3.94,26.18-7.56A198.09,198.09,0,0,1,357.59,799c38.73.26,82.33-3.37,106.82-10.47,67.28-18.22,149.31-64.84,201.88-137.84C731.34,560.33,734.63,467.71,733.91,436.44Z"/>
        <path id="long_right" data-name="long right" d="M189.55,859s48.17-97.82,192.29-97.82c206.73-.95,308.83-185.9,314.29-297.83,0-21-3.83-77.1-3.83-77.1l12.24,5.42s4.23,22.08,4.23,59.42c0,170.28-143.62,335.24-335,335.24-106.17,0-150.29,46.47-173.72,78Z"/>
      </g>
      <g id="Globe">
        <polygon points="291.05 250.92 290.29 249.4 288 250.92 288.76 251.68 291.05 250.92"/>
        <polygon points="279.14 253.21 282.97 252.32 282.29 249.4 275.94 248.51 275.31 250.54 279.14 253.21"/>
        <path d="M291.05,257.78c.95-.32,3.24.44,3.24.44s1.71-3.17,1.27-3.91-4.51-1.42-6.41-1.1-1.91,2.16-1.91,3.62-1.9,4.38-2.41,5.39A19.15,19.15,0,0,0,283,267.3c-.27,1.84.65,1.91,2,2s4-2,4.19-3.81-.77-1.65-1.15-3S290.1,258.1,291.05,257.78Z"/>
        <path d="M320.08,264l-2.22.11c-.64,2.89,2.24,5.34,0,8.4-.73-.94-4.47-2.9-5.69-5-.82-1.43.25-3.93.25-3.93s6.16-6.83,5.53-6.86c-.16,0-11.81,1.2-11.81,1.2l.84,3.88s4.15.3,4.05.25-.38,2-.38,2l-1.51,1.21s-3.3-.46-4.55-1.45c-1.3.37-2.78.84-4.28,1.2a5.74,5.74,0,0,1-1.71-.19c.31-1.28.57-2.4.85-3.58-2-1.9-2-1.9-4.46-2-.12,3.34-3.7,6-1.67,10h3.22l6.16,3.26,2.88-2.59,4.08,1.39c-.26,3.06,3.54,2.82,4.1,5.22l7.86,3.08c.2.61.34,1.05.54,1.65l3.43-6.69-5-3.22C322.56,268.75,321.79,266.36,320.08,264Z"/>
        <polygon points="310.35 239.87 312.38 242.41 315.56 242.41 316.87 240.51 313.6 239.24 312.13 238.22 310.35 239.87"/>
        <polygon points="318.61 235.18 320.13 233.33 318.35 227.68 315.81 226.29 313.6 228.44 315.81 234.67 318.61 235.18"/>
        <path d="M314.29,246.86s-5.33.51-6.48,1.27a2,2,0,0,0-.85,2l6.64-.76Z"/>
        <path d="M306.93,255.37a12.62,12.62,0,0,0-1.33-2.16l-2,.73.64,1.43A19.8,19.8,0,0,0,306.93,255.37Z"/>
        <polygon points="259.94 241.59 261.21 243.05 265.65 240.32 263.43 238.22 259.94 241.59"/>
        <path d="M423.89,340.7s-1.47-7.62-2.17-9.4,1.71-4.19,2-5.08,0-6.79,0-6.79h-2.1s-.5,3.62-.5,5.46-3,6.48-3,8.19,2.09,8.89,2.09,8.89C421.34,342.48,423.89,340.7,423.89,340.7Z"/>
        <polygon points="161.53 336 159.72 340.86 161.53 340.86 161.53 336"/>
        <path d="M306.29,224a14,14,0,0,1,3.55-2.67c2-1,4.2-.89,3.69-2.16s-6.1-7.87-6.48-8.5-4.82,0-6.09,0l-.64,3.43,1.91,9.9Z"/>
        <path d="M307.63,466.67l1.33-1.44c-1.77-1.67-1.72-3.55,0-5.24l-3.42-5v-6a6.3,6.3,0,0,1-3.76-3.91c2-.8,4-.84,5.65-1.52.43-1.05,1.18-3.46,1.59-4.46h-5.17v-2.3l2.29-3.61h-3.52c-1.52,2.26-4,4.78-5.6,7.13.45.76,1,1.09,1,1.46-.07.58-2.25,1.32-2.54,1.9.9.72,2.56.4,3.18,1.4.5.82,0,2.92.24,3.85-.66.45-3.23.44-2.88,1.94s4.59-.44,5.73,1.86l-2.2,1.57c1.19,1.32,2.67,2.1,2.17,4.05-.87,2.13-5.72,1.31-7.38,2.67-.8.65-.09,3.25-.7,4.44-.34.67-2.1.33-2.67.51s0,.87,0,.87l2.66.4c.21.75.37,1.32.56,2h4.65a6.38,6.38,0,0,1-3.08,3.33c-.21.12-.46.17-.25.09a15.13,15.13,0,0,0-2.15-.61,65.1,65.1,0,0,0-6.73,1.33l0,1.39s15.11-.91,20.28,2.31c2.73-.88,2.29-2.89,2.76-4.34,2.59-1.25,1.88-1.72,3.11-3.94C311.92,466,309.21,467.68,307.63,466.67Z"/>
        <path d="M425.78,354.86a20.16,20.16,0,0,0,6.16-1.59l-5.9-5.52-1.53-3.56-3.36,1.46S422,354.86,425.78,354.86Z"/>
        <path d="M164,355.26c-1.83-.49-4.14.8-5.95,1.23.89,2.73,1.81,5.49,2.69,8.27a17.41,17.41,0,0,1,1,3.56,9.93,9.93,0,0,1-1.85,6.17c-.21.32,0,.88,0,1.44h2.37c2.22-1.4,3.21-3.87,5.78-5.66-.33-4-.71-8.45-1.12-13.4h2.79V355.7C167.78,353.71,166,355.79,164,355.26Z"/>
        <path d="M277.94,383.41c1.39,2.25,2.05,5.78,4.2,6.77s14.93.38,15.28-1.44-.68-4.49-1-6.64h-4.73L287.05,379h-4.52c.21-.89,0-1.86.52-2.67s1.72-.19,1.81-2.07h-6c0,.71-.38.92-.05,1.83.19.5,1.45.5,1.76,1.05s-.15,1.9-.15,1.9S278.29,379.24,277.94,383.41Z"/>
        <path d="M287.77,454.49l1.59-1.58h3.27v-4.76l-5-1.32-4,3.48-1.25-1.1c-.86.88-1.74,1.77-2.63,2.66l1.25,3.48c-2.54,1-4,2.83-5.61,4.84,3.48,2.88,7.33,1.51,10.81,1.89l2.75-2.75C288.57,457.81,288.17,456.14,287.77,454.49Z"/>
        <polygon points="287.24 244.06 282.29 239.11 275.31 241.59 278.23 244.06 287.24 244.06"/>
        <path d="M304.38,536.71c-1.14-.46-3.61-.52-3,1.19s1.4,2.35,2.22,2.42c1.53.12,3.11-2.22,2.61-2.54A7.32,7.32,0,0,0,304.38,536.71Z"/>
        <path d="M305,234.16l4.7-2.79-.62-1.78-1.29-1.15L306.29,230h-3.56s-1.77.89-1.77,1.9-.64,5.56-.64,5.56l2.92.79Z"/>
        <polygon points="272 268.95 275.31 273.02 277.6 270.21 275.31 268.95 272 268.95"/>
        <path d="M327.5,537.08c-.54.82-1.21,9.65,0,10s4.38-.95,4.76-2.42,1.65-4,1.08-5.9S328,536.25,327.5,537.08Z"/>
        <path d="M331.05,533.14c.83,0,2-1.77,2-3.3a2.88,2.88,0,0,0-2.67-2.73c-1.2,0-1.2,1.59-1.2,3S330.23,533.14,331.05,533.14Z"/>
        <path d="M373,140.11c-167.54,0-303.36,135.81-303.36,303.35S205.41,746.81,373,746.81,676.3,611,676.3,443.46,540.48,140.11,373,140.11ZM478.41,180a2.55,2.55,0,0,0,2.4,0c2.26-1.63,4.77-.55,7.67-1.19l.95-1.86a17.06,17.06,0,0,1,8.54,2.85,14.58,14.58,0,0,0,3.58,2.2c2.89.87,5.22,2.73,7.86,4s4.95,3.4,7.57,4.67c4.49,2.19,8.68,4.83,12.95,7.37a3,3,0,0,1,1.74,3.52c-2.78,1.78-5.58,3.43-8.93,4,3.81.16,7.51,1.2,11.37-.26a6.89,6.89,0,0,1,6.49.72,20.38,20.38,0,0,0,2.75,1.32l1.2,2.3-1.29,1.4c-1.47,0-3.6.65-4.65-.14-2.32-1.73-5.27.21-7.62-1.84l-3.7,5,6.92,6-3.63,2.7.88,1.74c-.49,1.48-2.23,2.17-3.21,1.32-2.1-1.82-4.82-2.27-7-3.85s-5-2.15-6.66-4.51c-.5-.7-5.46-2.24-6.95-2.49-.61-.1-1.5,0-1.8-.4-2-2.43-5.12-2.23-7.87-4.09a22,22,0,0,0-1.49-2.16,43.89,43.89,0,0,1-4.33-5.2c-1.78-2.94-5.1-4.12-8.2-5.36-1.39-2.6-2.42-5.53-5.6-6.59-1.79-.59-3.68-.46-5.56-1-3.66-1.06-7.65-1-11.62-1.4l-3.37-2.34v-3.27l2.63-.31.4-1.7c-4.46,0-8.78-.91-13.35.74l-3.19-1.66c1.91-2.74,11.09-2.65,11.09-2.65s9.73.46,11.75.41a11.8,11.8,0,0,1,5.63.89C474.45,179.73,476.66,178.37,478.41,180Zm4.44,320.52c-2.81-2.92-4.92-6.52-6.87-9.18,1.48-5.8,5.59-9.53,6.9-14.83.87-3.53,4.22-5.41,8.05-5.45h3.46c2.47,2.63.79,5.76,1.43,8.62l-6.24,6.24,3.75,1.62c1.12,3.31,5.05,3.61,7.39,5.62,3-.9,4.2-.74,6.52-1.44,1.2,1.54,7.38,5.5,7.38,5.5s-3.53,5.85-5.2,5.85c2.39,5.18,6.14,9.15,7.63,14.45l-16.58,5.87-7.64-10.31c.34-2.15,2-3.73,2.41-6.4C491.37,504.76,485.68,503.46,482.85,500.51ZM425.7,582.36a6,6,0,0,1-1.61.69l-4.51,2c-2,0-4.85.12-7.66,0a50.58,50.58,0,0,1-6.08-1c-1.86-.34-3.78.61-5.69-.84-.95-.73-2.9-.11-4.4-.16-1.95-.06-3.54-.74-4.32-2.86h-7.61l-5,5c.23.69.58,1.71.88,2.75.26.88.45,1.78.7,2.81a10.08,10.08,0,0,1-11.17,1.3c-3.85-2-8.05-3-11.78-5.46-2.14-1.37-2.84-3.07-4.36-5.48-1.61-.27-4.07-.29-6.19-1.13a15.68,15.68,0,0,0-6.73-.85c-2.25-3.33-7.73-3.34-8.74-8.5l5.76-5a12.08,12.08,0,0,0-1.33-1.86,11.28,11.28,0,0,0-1.83-1c-1.41-3.09-1.41-3.09-.33-5.16L332.15,556c-1.85.59-4.15-1-5.92,1-2.22-.32-4.56.72-6.72-.64a3.45,3.45,0,0,0-1.85-.33c-4.36.14-8.49-1.14-12.71-1.78-3.69-.56-7.83-1.3-11.62.6a5.88,5.88,0,0,1-2.43.16c-2.67,0-5.34-.15-8,.05a49.23,49.23,0,0,1-10.77-1c-3.55-1.41-7.08-2.78-8.78-6.83-3.9,1.39-5.93,5.13-8.81,7.43l-8.66,1.44c-.1,1-.19,1.75-.3,2.74H244l-3.06,3.3c.3,1.28.65,2.81,1,4.42-1.5.45-3.21,1.54-3.93,1.07-1.67-1-2.36,1.12-3.92.6-.95-.31-2.4,1.31-3.72,1.54-2.68.48-5.45.84-8.08-.95A10,10,0,0,1,212,573c-.93,3.54-3.05,5.67-6.33,7.19-2.55,1.18-4.63,3.39-7.07,5.25.48,1.68-.11,3.27.85,5.13,1.18,2.3-.77,4.84-1.15,7.32a58.86,58.86,0,0,1-2,7l-4.72,4.73c.13,1.52.25,3.43.48,5.32s.55,3.48,1,6.08c3.82,5.42,7.83,11.8,12,18.09a103.9,103.9,0,0,0,14.61,17.42,9.31,9.31,0,0,0,5.82,2.71c.07.51.18,1.26.27,1.88l4.86,4.73a52.37,52.37,0,0,0,7.33,2.83c2.73.67,5.46,2.21,8,2.14,3.3-.08,5.49,2.85,8.68,2.23,2.42,2.19,5.54.53,8.35,1.53s6.19.41,9.32.46,6,0,9.07,0l.49,1.77c3.27.54,6.62,1.72,10.16,2.41,2.43.47,5.59.77,6.78,4.2.48,1.39,2.31,2.31,3.47,3.39l15.48,1.52c1,.86,2.61,2,4,3.31s3.52,1.58,3.62,4.14c-1.36,1.94-3.56,3.88-3.8,6.61l-3,2.2c.19.62.19,1.09.38,1.19,2.73,1.45,19.51,12.77,19.51,12.77l1.33,1.69s2.32,1.62,0,2.78c-26.57-4.17-158.5-21.57-226.69-164-26.16-63.49-43.43-147,1.11-244a8.58,8.58,0,0,1,2-2l3.16.16c-1,2.05-1,3.73-2,5.67,1.55,0,2.68,1.24,3.5,1.24,1.13,1.54,2,1.58,3,2.92,1.09-.8,2.24-.54,3.45-1.43.59,3,.59,4.58,1.18,7.55.91-1.23,2-2.23,2.81-3.38a24.93,24.93,0,0,1,3.65,1.33,32.57,32.57,0,0,1,3.59,2.73c1.14,2.3,4.37,7.54,5.57,11.28a6.78,6.78,0,0,1-.19,4l-6-5s-2,4.25-1.19,4.62c.67.3,10.62,10.84,11.81,10.67.7-.1,1-2.81,1-2.81l-3.38-2.81.59-7.89,3.65-4.19s3.36-3,6-2.62v-8.73c-.88-1.89-3.52-1.62-4.94-3.5-1.23-1.62-3.7-2.25-5.17-3.76s-2.45-3.6-3.76-5.62l1.44-1.51c.65.11,1,.06,1.26.24,2.12,1.74,4.22,3.51,6.31,5.28s3.79,3.49,5.84,5.1c2.8,2.19,6,4.47,6.29,8.83.09,1.41,1.26,2.78,2,4.15.28.55.83,1,.91,1.61.43,2.83.75,5.68,1.12,8.67,2.87,1.19,4.75,4.25,8.29,4.18,2.83,2.48,5,.3,7.42-1.05v-5.41c-2.11-.41-1.91-3.2-3.77-4.25,2.61-.17,5.15-.85,7.85,1.25-.24-7,4.71-11.5,6.68-17.42h2.83c2.77-3.58,8.6-4.68,8.64-10.89h-3.25l-5.9-6.13,4-5.7,11-2.4v-4.27l4.65-4.1c.64-4.26,1.08-7.24,1.54-10.3-4.6,1.17-9.81.1-12.51,4.58-2.76.52-3.35-1.77-5.21-2.75-3.91,5.21-9.43,7.28-16,6.77-.6-2-1.17-4-1.82-6.14a17.05,17.05,0,0,0-2.67.88c-2.33,1.23-4.58,2.62-6.91,3.85a3.55,3.55,0,0,1-5.08-1.27,24.71,24.71,0,0,1,1.42-4.94c.74-1.41,1.09-3.5,3.4-3.51,2.2-2.4,5.15-3.54,8-4.77a45.25,45.25,0,0,1,5.29-1.51c2.23-3.3,3.94-7.36,6.66-10.88,2.05-2.66,4.24-5.24,6.2-8,1.2-1.7,2.69-3.19,3.84-4.93,1.4-2.12,2.72-4.12,5.45-4.82.86-.21,1.47-1.41,2.6-2.59l4.4-2.3c7.59.31,16.2,8,18,16.65l3,1.38,4.82-4-1.22,6.25,5.5,3.51L241.86,264c2.84,2.81,3.79,2.83,8.81,0l3.53,1.9,4-3.8a13.65,13.65,0,0,1-10.77-3.72c1.38-2.75,3.7-3.72,6.24-4.7V250.2h5.63l2-3.09,1.84-.1,2.59,3.15c3.4-.37,6.09-1.12,8-3.67l-6.61-2.19A19.68,19.68,0,0,1,257.2,246l-2.34-3.29-1.94,1.42c-1.95-.54-2.34-1.83-2.17-3.79l6.15-1.92c1.41-1.94,3.81-4.56,5.4-7.6a9.94,9.94,0,0,1,5.51-4.78c.46-.19.77-.75,1.31-1.29-1.82-1.44-5.06.61-5.36-3.42l3.17-1.57c1.75-.65,4-1.64,5-3.6,1.16-2.13,3.43-2.49,4.51-4.42l3.47,1.36c2.38-1.32,4.69-3.2,7.3-3.87s4.94-1.81,7.46-2.43v-2.16c1.33-1.22,2.56-.81,3.85.87.12-1.44.18-2.23.28-3.41a19.81,19.81,0,0,1,2.67.28,27.92,27.92,0,0,1,2.87,1,21.18,21.18,0,0,1,4.6-10.14h2.36l.84,1.8c1.49-.08.92.6,5.12-5.14,10.87,1.09,21.81-1.52,32.86-.86,2.42.14,4.57-1.69,7.08-1,1.71-2.1,4.12-.26,6.34-1.45,3.52-2.92,8.59-4.37,12.15-8.41L361,174.66v-3.2c1.39-.41,2.72-.84,4.07-1.19a5,5,0,0,1,1.91-.2c1.86.3,3.6,1.45,5.58,1,1.66-.4,3.29-.91,5-1.37-.29-.71-.62-1.5-1.11-2.67-.79.14-1.68.26-2.55.45s-5.31-.31-6.84-.33c-1.36,0-4.69.32-5.13.21v-6.21a24.12,24.12,0,0,0,3.54,0,12.09,12.09,0,0,0,7.3-4.56v-2.11l-1.82-.63c0-1.06,0-2.6.29-2.6,43.06,0,79.12,10.18,100.36,17.53a2.78,2.78,0,0,1-.86,1.54,15.33,15.33,0,0,1-3.48.56l-2.15,3.2c-2.11.72-10,1.51-10,1.51s-11.69-2.36-14.74-7.67c-5.36.39-10.7.79-16,1.14-1.33.09-2.68-.12-4,.05-2.38.29-4.28-.7-6.34-2.09v5.43c.78.75,2.16,2.07,3.82,3.64l-11.9-1.32-1.65,2.53a15.1,15.1,0,0,1-7.88-6.93l-4.51-1.45-5.18,4c1.65.72,3.18,2.22,4.9,3,.79-.39,1.77-1.58,2.63-2,1.89,3.61,3,7.59,7.33,9.63l.46,2.45c4.66,2.64,8.67,6.54,14.14,8.54l1.76-2.93a14.53,14.53,0,0,0,2.42,1.48,6.75,6.75,0,0,0,2,0l2.24,4.4,6.69,2.59h7.35c.09.73.18,1.5.31,2.67l-5.29,4.6c1.84,3.93,3.87,7.05,8.08,8v9.22c1.32,1.6,2.75,3.31,4.14,5s2.77,3.54,4.2,5.37l3.32-1.71,2.16,1.26a5.35,5.35,0,0,1,1.11,1.93c.75,4.4,2.88,7.25,7.63,7.67.51.05,1,.86,1.55,1.43-2.45,2.48-4.79,5.05-8.45,5.72l-1.21-2.47-4.24,2.39c.77,1.61,1.48,3.07,2.11,4.36l5.76,2.4a12.76,12.76,0,0,0-1.91,5.69c-.47,1.3-2.23,1-2.54,2.16-.46,1.73.64,4.7.64,4.7s2.77,8.09,4.78,11.23c.35.54,0,1.53-.07,2.74-3.46-1.74-5.3-4.54-7.66-6.73s-4.47-4.47-6.89-6.91l-4.29,2.88c-1.18,1.8,1.47,3.71.78,6.4L437,278.87l-1.87,2.52,3.68,1.83-.69.87h4.35c.31,6.66.43,13.15,1.65,19.72,2.41.72,4.48,3.14,8.29,1.85l-4.94,10a57.85,57.85,0,0,0,6.16,3.32c.87.34,2.13-.33,3.22-.49s2.45-.32,4.14-.54l-4.06,5.13h-4.27c.24,1.37.44,2.51.72,4.13l-3.46,1.27c1.11,1.75,1.64,3.9,4.17,4.67,2,.62,3.83,2,5.85,3.1,3.2-1.22,6.4-4,9.81-.51a9.51,9.51,0,0,1-3.94,2.74v1.71l5,4.25c.39,3,.78,6.13,1.21,9.5l-5.81,2.22c-1.47-2.45.57-3.42,1.64-4.85a29.93,29.93,0,0,0-7.5-10,28.48,28.48,0,0,1-5.22-1.4c-1.46-.67-1.87-2.53-3.44-3.51-2.83-1.78-5.22-4.26-8.39-7l-.87,2.62-.82-.48c1.06,2.36,2.09,4.73,3.18,7.07a2.19,2.19,0,0,0,1,1.05c2.78,1,4.16,3.61,6.48,5.4a7,7,0,0,1,6.27,2.39v4.42l-15.77,1.51-.1,1.23,4.42,4.42c-.65,2-1.13,3.45-1.65,5h-4.66l-2.73,5.19L435.66,368l-4.3,5.05-3.79,9.82c-2.53-.14-2.53-.14-4.7-2.19-.13-1.2-.27-2.45-.46-4.21l-2.78,2.1c1.89,3.43,3.61,6.54,5.55,10.09l-6.41,3.13-1.32,3.05,2.5,3.23c-.4.91-.84,1.89-1.26,2.82l-5.6.35,2.7,3.63c-.16.31-.25.93-.58,1.11-1.32.72-2.72,1.31-4.1,1.94l-3.53-3.53c-.59-.59-1.42-1.08-1.73-1.79-.84-2-1.09-4.31-2.26-6s-3.22-3-4.86-4.44c-.08-.07,0-.32,0-.84,3.3-.45,6.54-.86,9.44,1.61l5.34-4c.27-1.79.48-3.15.73-4.78-5.17-1.58-10.31-5.3-16.72-4L395,378c-3.2,1.41-3.2,1.41-7.43-.42l.85-3.32L386.92,373l-7.87,2.6c-.23,1.33-.38,2.25-.55,3.28h-4.8c-4.85,4.56-7.85,6.22-8.33,10.19a7.13,7.13,0,0,0-4.54,4.28c-.86,1.81-2,3.5-3,5.23l1,1.17c-.53,1.07-1.07,2.18-1.61,3.26h-2.33c-.11,1.23-.22,2.48-.25,2.85-3.21,3.21-5.9,5.9-9,9-3.24.31-8.06,2.86-12,6.65,0,1.66.09,3.34,0,5s.5,3.47-.86,5.18a3.93,3.93,0,0,0,.06,3.79c1.41,1.69.37,3.52.87,4.93l1.42,1.61a22.18,22.18,0,0,0,11.08-6h2.46c0,1.95-.65,4.24.16,5.76,1.08,2,.28,4.17,1.18,6,.8,1.67.78,3.8,2.89,4.71l-1.42,2.86c.55,1.23,1.11,2.47,1.63,3.65.54-.07,1,0,1.16-.17,1.54-1.9,2.8-3.78,5.81-4,2.08-.16,1.5-3.2,2.51-4.77.46-.71,0-2,.11-2.95a27.82,27.82,0,0,1,.89-3.29c-.3-.63-.69-1.45-1.21-2.51l3.11-.53c-.11-.28-.13-.58-.29-.73-1.15-1-2.15-2.07-1.15-4.1l3.94,1.25,2.14-2.26-5.4-3.52V420.61c1.07-1.84,3.48-2.71,4.17-5.16.22-.78,1.7-1.28,2.67-1.78,1.71-.87,3.51-1.59,3.5-4.42-2.07-2.39,1.53-5,.42-8.05h7.77l2.4,2.32v2.76a12.43,12.43,0,0,0-2,1.9c-1.45,2.23-2.27,4.8-4.27,6.77a6,6,0,0,0-1.8,4.73c.18,3.31.05,6.64.05,9.42l3.45,3.94c3.25.13,5.4-2,8-3s5.31-1.63,7.41-2.26l4.6,4.1a20.06,20.06,0,0,0-3.41,3,4.68,4.68,0,0,1-4.26,2.13c-1.66,0-3.33,0-5,0l-3.67,2.17v2.64h2.73c.31,2.72.08,5.3.17,7.83l-3.82,1c-.18-.36-.61-1.18-1.06-2.06l-3.61,1.18c-.37.67-.51.8-.51.94,0,4,0,8,0,11.7-.93,1.57-2.2,1.51-3.55,1.71-1.15.18-2.17,1.17-3.73,2.08l-4-1.81c-4.23,1.07-7.31,4.85-11.77,4.67l-4.16-2.79-7.59,1v-2.7c-.11-.05-2.67-3.43-2.67-3.43l3.29-5.24.38-6.95a16.09,16.09,0,0,0-4.19,1.38c-.87.46-2.13,1.14-2.24,2.05a27.07,27.07,0,0,0,.38,7.86,5.33,5.33,0,0,0,1.94,2.79v4.5c-2.3,1-4.37,2.75-6.68.47-3.11.91-6.62.69-9.16,3.25s-4.95,4.95-7.6,7.6h-5.28c-1.29,1.73-2.24,4.3-3.86,4.83-1.94.64-3.61,1.81-5.71,2.37L298,483.23a8.89,8.89,0,0,1-1.42,4.45l-8.92-1.53c1,3.92,4.56,5.17,7.3,7.55-.39,1.1-.81,2.28-1.34,3.75l3.25,3.25-6.49,13.08c-3.2.17-3.2.17-8.07-2.64a2.49,2.49,0,0,0-.46-.09h-3.5c-1-2.58-3.51-2.48-5.49-3.44-2.24-1.08-4.52-.16-6.83-.67l-.65-1.79h-3.49v7c-2.77,4-3.44,8.7-7.11,11.31-.39,3.88.77,7.67-1.06,10.95,2.56.85,5.26,1.15,7.15,2.55s2.69,3.79,4.2,6.07a31,31,0,0,1,5.79.85c1.78.57,3.49,1.19,5.22,1.92,1.26.53,2.87.22,4.36.29.56-.92,8.39-6.91,10.2-6.91v-4.74a88,88,0,0,1,7.72-5.31,73.08,73.08,0,0,1,7.93-3.24c.56-1.92.74-3.92,1.71-5.42.77-1.2,2.49-1.79,3.92-2.73l9.42,4.61c3.15-2.12,6.68-3.35,9.69-5l6.2,2c2.07,2.28,2.48,5.48,4.13,8.19s4.73,4,5.73,7.35h4.29c.19,1.06.37,2,.57,3.06,4.89,2.63,8.26,6.71,10.28,12.62l1.83-3.5-2.87-3.24c1.43-.75,2.73-1.43,4-2.1l-.59-.81,3.79,1.21a18.24,18.24,0,0,0-9.81-5.4c.25-1.13.5-2.26.74-3.39l-6-1.33c-1.65-3-3.13-5.87-4.87-8.61-.74-1.14-2-1.93-3.81-3.52l-1.3-6.81a25.43,25.43,0,0,0,3.77,0,19.63,19.63,0,0,0,3.12-1.08c.62,1.35,1.19,2.61,1.91,4.2l2.43-.88c.63,1,1.43,2.22,2.29,3.45,1.24,1.78,2,3.89,4.5,4.64,1.12.34,1.91,1.78,2.59,2.46l5.38,1.48c1.14,3.1,4.35,4.62,6.34,7.47v6.09L386,557.9h5.42c.89-2.3,1.84-4.73,3-7.62-1.24-.94-2.52-2.32-4.15-3.55-1.46-1.1-2.12-3.41-4.43-4,0-1.09,1.42-2,1.42-3.1,1-.48,2.94-.86,3.77-.4l2.83-3.49,10.92,1.37,7-3.59c-1.82-3.12-2-3.32-5.19-5A44.73,44.73,0,0,1,408,523.9a14.58,14.58,0,0,1,2.48-3.33c0-1.51.61-6.06,1.18-6.41v-4.61c3.27-2.8,5.33-5.06,9.68-7,.23.16,2.09,1.62,2.09,1.62l4.29-.19a23.73,23.73,0,0,1-1.53,3.62c.83.1,4.3,2,5.16,3.75l6.88-4.89-5.4-2.89v-2.2c1.91-1.89,10.17-9.48,13.71-9.47v4.73l-2.69,1.55c.15.36.18.71.35.8a10.61,10.61,0,0,1,1.67.76c.46.36-1,2.54-1,2.54l-1.44,2.27s14.48,5.57,19.95,7.1c.58,3.12,1,5.57,1.49,8l-6.78,4.44c-4.08-.68-7.74,2.18-11.94,2-1.92,2.11-3.83.65-5.68-.09a29.11,29.11,0,0,1-3.3-1.83c-2.67,1.59-5.22,3.66-8.49,4.44a4.82,4.82,0,0,0-2.39,1.41c-2.21,2.55-5.51,3-8.67,2.53-.6,1.3-.58,2.86-1.17,4.15-1.28.71-3,1.28-4.2,2.42-1.63,1.57-3.48.46-5.15,1l-4.16,2.75,3.29.16,1.49,4.23-1,1.52c2,2.28,3.72,4.24,5.43,6.21,1.42.15,2.82-.28,4.19.91.75.65,2.39.29,3.58.39l3.41-3.42c3.39.35,5.93-.22,8.5,1,1.13.53,3.05-.35,4.5-.89,2.76-1,5.93-1.28,7.76-4h4.1c.16.27.44.53.47.81.36,3.35.71,6.71,1,10.08a5,5,0,0,1-1,4.08c-1.29,1.41-.81,3.31-1.38,4.93-1,2.91-1.93,5.87-2.9,8.84-2.68,1-5.37,2.2-8.15,3.1-.77.25-1.8-.21-2.68-.47C430.16,579.42,428.42,579.85,425.7,582.36Zm61.19,119.56c-2.59.7-5.24-.48-7.48-2.66.46-.62.72-1.35,1.21-1.56,11.95-10.65,43.32-35.35,52.65-52.05,1.54-3.69,5.29-14.72,6.43-16.94-.32-1.14-.79-2.78-1.31-4.6a139,139,0,0,1-14.26,11c-5,3.31-10,6.53-15.16,9.92-2.73,0-6.29-.75-9.35-.75-.42-.46-.09-3.3.41-4.93l-18-2.65c-1-1.26-5.54-8.12-7.79-8.66h-5.13c-2.48-3.9-3.94-8.31-5.52-12.66-3.47-1.83-8.12-2.48-7.87-7.91-1.94-1-11.09-11.18-11.09-11.18s-4.63-7-5.17-7c-.86-1.71-2.76-1.57-3.81-3.64a16.89,16.89,0,0,0,1.75-.76,13.3,13.3,0,0,0,1.37-.94c2.55,2.55,4.89,4.9,7.62,7.62a43.2,43.2,0,0,1,2.58-8.2,5.94,5.94,0,0,1,2.87-.05v3.49c-1.05.74-.27,1.13-1.69,2.12,2.56,2.21,16.65,15.27,21.15,15.28l5.46,6.75v2.72c.75.31,9.95,5.74,11.94,7s4.25,1.89,6.09,2.89c4.48,2.42,6.35,10.35,9.62,14.34.7,0,30.59-26,33.8-27.91,1.38-.81,2.37-2.28,3.34-3.25l-1-3c4.19-3.74,8.31-7.42,11.72-10.48,1.67-6.15,5.76-9.68,8.78-14.43l-2.39-5.11c3.58-3.13,4.17-8,6-12.48A4.1,4.1,0,0,1,563,561a6.13,6.13,0,0,0-6.69,0c-2.23,1.26-4.68,1-7.24,1l-2.78-4.17-2.44,3.43c-.67,2.55-1.57,6-2.61,10l-10.56,5.2L526.39,570c-1.71,1.05-2.43,3.43-4.73,3a17.62,17.62,0,0,0-2.87-3,7.5,7.5,0,0,0-3.55-1c-3.64-.14-5.77-2.3-7.55-5.13-.36-.56-1.12-.86-1.86-1.4v-3.29c3.56-.12,3.5-5.21,7.18-4.83l8.18.83,2.64,3.62c5,.66,9.64-.46,14.19-1.82l4.35-6c2.29-1,4.83-1.74,7.8-.26a5.59,5.59,0,0,0,5.5-.78c4.49-3,9.38-5.33,13.1-9.48a71.32,71.32,0,0,1,11.12-10.27,17.32,17.32,0,0,0,2.6-3.18c3.19-.58,6.86,0,10.61-.86s6.15-3.49,9.35-5.07c1.31,3-2.61,4-2.5,7.07l6.24-1,2.44-7.41c-.33-.73-.69-1.53-1.2-2.64l2.43-.22c3.54,2.18,4.76,6.11,6.85,9.4.49.78.8,1.68,1.32,2.45a15.65,15.65,0,0,0,6.53,5.71c4.48,2.12,8.63,4.94,13,7.54l2.54-1.26c.24.55.64,1,.54,1.33C614.29,604.19,572,661.71,486.89,701.92ZM659.71,449.63c-.32,7.19-.61,14.38-1,21.56-.1,1.71-.72,3.38-.94,5.09a29.87,29.87,0,0,1-.85,4.63c-.7,2.54-.17,5.35-1.06,8.07-.57,1.72-.51,3.69-1,5.57s-.35,4.06-1.08,6.07c-.63,1.76-.29,3.94-1.14,5.52-2.66,4.86-1.49,10.87-4.86,15.5-.47.66.21,2.07-.15,2.92-1.07,2.51-1.32,5.43-3.49,7.39-.41-.78-.83-1.6-1.42-2.76,0-3.11-.07-6.61,0-10.1a15.8,15.8,0,0,0-2-7.7,8.8,8.8,0,0,1-.36-7.75c1.34-3.28,1.57-7,2.3-10.54.32-1.53.68-3.05,1-4.58s-.36-3.1.61-4.77c.73-1.26,0-3.3.47-4.79,1.23-3.66.66-7.4,1.05-11.08.12-1.12,1.22-2.31.83-3.59a35.1,35.1,0,0,0-1.95-4.21,13.48,13.48,0,0,1,2.3-8c1.18-1.86,1.4-4.45,1.64-6.76.26-2.62.06-5.28.06-8,3.58-.93,7.31.88,10.71-1.69.21,1.4.49,3.19.49,3.19l-.2,8.51S659.75,448.84,659.71,449.63Z"/>
        <path d="M229.94,298.45c3.3-1.74,6.54-1.72,10-2.4-.73,3.56-3.84,5.46-4.24,8.6l4.23,1.38c5.5-3.37,6.54-9.82,9.83-14.67,6-.95,9.53-5.57,14.14-8.72v-5.39l8-2.61c-3.57-5.57-4.05-6.78-3.81-9.45,2.74,1.8,5.43.73,8.11-.19.16-.05.2-.44.29-.65l-1.44-1.44h-8.53c.22-1.15.1-2.2.56-2.66,1.76-1.72,3.93-3.06,6.38-1.79a7.68,7.68,0,0,0,3.26.57c.27,0,.56-.23.85-.36v-2.58l-7.5-1.19c-1.84,1-2.78,2-3.75,2-1.67.05-2.32,1.23-3.12,2.16-1.57,1.81-2.92,3.81-4.34,5.71-.28.95-.58,1.95-.86,2.91l2.8,3.21c-1.29,1.36-2.15,2.38-3.13,3.27-1.14,1-2.5,1.85-3.55,3-1.67,1.77-1.82,2-3.73,2.89a3.69,3.69,0,0,0-.74.62v1.93c-3,.78-3,.78-4.72,3.79l-7.69-2.25c-1.92.87-1.92.87-4.55.3,1.15-3,1.39-6.51.67-7.23H229.3c2.56,3.43,1,6.51.3,9l-10.92,8.29,1.88,1.88c-2.83,3.58-3,4.29-1.9,6.92a9.18,9.18,0,0,0,3.56-4.06l3.24-1.43c.22,2,.4,3.64.61,5.48C228.89,302.44,228.91,300.08,229.94,298.45Z"/>
        <path d="M257.88,351.71v1.94l2.41,1.23c2.8-.65,5.92-.55,7.81-2,2.5-1.95,5.34-1.76,8-3.11.77,1.18,1.44,2.2,2.07,3.18,3.71,1.07,7.09,3.35,10.34,3.15l3.23-2.47c-1.5-1.35-1-2.83-.92-4.18a6.29,6.29,0,0,1,7-2v5.85c1.34-1,1.92-1.93,1.86-3.38a12.77,12.77,0,0,1,.41-2.85l1-2.3.75,1.93,2.66-1.86c.14-1.92.24-3.32.3-4.24l4,.5c-.52-1.57-.89-2.65-1.2-3.58,2.65-1.5,3.39,1.12,5.21,1.84a17.42,17.42,0,0,0,5.95-12.12l2.76-1.62c0-.61.1-1.25.1-1.35h0s0,0,0,0l5.28-5.3h1.43c1-2.48,1.77-5,4.71-6.07l1.42,1.92,7.38-2.4c-.38-1-.81-2.17-1.21-3.21-2.82.9-5.11,2.39-8.46,1.63l4.13-3.32c-3.35-.95-3.35-.95-3.61-4.48,1.75.45,3.21,0,3.9-1.79-.36-.93-.73-1.87-1.3-3.35l5,1c-1-1.3-1.65-2-2.18-2.76-1.73-2.49-4.51-3.5-7-4.89-1.89-1.06-3.6,1.06-5.53.88a4.62,4.62,0,0,1-1-.42v-5.18c-3.8-3.44-9.68-1.29-12.8-5.82L309.14,283h-3.32c-.35-.8-.71-1.65-1.11-2.49s-.82-1.67-1.12-2.29h-3.65c-.57,2.41-1.11,4.65-1.63,6.83-2.94.27-2.11-3.43-3.73-3.69-1.37,1.11-2.39,1.91-3.38,2.75-.17.14-.2.44-.29.65l2.1,2.1a35.79,35.79,0,0,1-1.76,6.1c-2.42,5-7.66,7.25-11.29,11.08a3,3,0,0,1-2,1c-3.19-.42-4.77,2.26-6.75,3.13.27,1.63.5,3,.71,4.29l-3.56,3.46h-2.44c-.14-1.72-.26-3.26-.38-4.74l-5.35,2.29c3.12.85,3.12.85,4.69,3-2.51,2.54-4.9,5.1-9,2.67a2.62,2.62,0,0,0-2.41,0c-1.6,1.41-3.42.75-5.58,1a40.37,40.37,0,0,1-11.41,11.08c-3.14,4.76-4.52,9.85-9.74,12.41.31,3.14-.71,6.59,1,9.84-2.86,2.62.75,4.95-.23,7.94l10.19-7.28c1.47.43,3.78-1.08,5.52.93L255,348.87Z"/>
        <path d="M280.59,233.13a36,36,0,0,1,10.94,4.3v-4.08l-5.66-1.59a5.56,5.56,0,0,0-.25-1.28,3.9,3.9,0,0,0-.71-.86l1.34-2.59h5.19c.9-1.16,1.86-2.42,3-3.86l3.3-.36v-4.28l-1.42-1.42c-2.06,1.08-2.06,1.08-3.6.25-3,.81-4.33,4.13-7.84,3.61v-3.66l2.15-2.15h-1.87l-6.58,3.33-.56-.64c-1.09,1.71-2.77,3.3-3.12,5.15a11.06,11.06,0,0,1-3.61,6c-.92.91-1.82,1.83-3,3l2,3.29,4.39-2.27C276.31,233.05,278.55,232.66,280.59,233.13Z"/>
        <path d="M246.23,279.75c.38-.13,1.58-2.61,1.58-2.61a7.42,7.42,0,0,0-.95-1.33l-2.22-.75-1.14,2.37.88,2.32A9.29,9.29,0,0,0,246.23,279.75Z"/>
        <path d="M219,273.43a8.32,8.32,0,0,0-3.19-.43,5.84,5.84,0,0,0,0,2,9.54,9.54,0,0,0,2,0S219.62,273.81,219,273.43Z"/>
        <path d="M293.21,245.78l3.17,2.73,3.94-.51s1.91-2,1.52-2-2.7-2.92-2.7-2.92h-2.76Z"/>
        <path d="M236.1,261.14c-.29-1.24-6.57-2.47-7.86-2.19s.43,4.67.43,4.67-3.13,5.14-2.07,7.62C226.6,271.24,236.38,262.38,236.1,261.14Z"/>
        <path d="M222.53,267.81s.57-3.81,0-3.81a16.64,16.64,0,0,0-2.67,0c-.05.14-1,2.62,0,3.52S222.53,267.81,222.53,267.81Z"/>
      </g>
    </g>
  </g>
</svg>
